<mxfile host="app.diagrams.net" modified="2021-04-12T05:09:39.725Z" agent="5.0 (Windows NT 10.0; Win64; x64) AppleWebKit/537.36 (KHTML, like Gecko) Chrome/89.0.4389.114 Safari/537.36" etag="tHQtNsWnOBXNE8cM8TiR" version="14.5.10" type="github" pages="4">
  <diagram id="_dR_gnV3g-gx36JD2XaP" name="arc structure">
    <mxGraphModel dx="1038" dy="580" grid="1" gridSize="10" guides="1" tooltips="1" connect="1" arrows="1" fold="1" page="1" pageScale="1" pageWidth="850" pageHeight="1100" math="0" shadow="0">
      <root>
        <mxCell id="0" />
        <mxCell id="1" parent="0" />
        <mxCell id="6KZVfbwh-mimBTYNhm9I-1" value="" style="rounded=0;whiteSpace=wrap;html=1;" parent="1" vertex="1">
          <mxGeometry x="50" y="30" width="120" height="60" as="geometry" />
        </mxCell>
        <mxCell id="6KZVfbwh-mimBTYNhm9I-3" value="" style="endArrow=classic;html=1;exitX=0.5;exitY=1;exitDx=0;exitDy=0;" parent="1" source="6KZVfbwh-mimBTYNhm9I-1" target="EKS3jcCrZXsVgr4jlx1r-1" edge="1">
          <mxGeometry width="50" height="50" relative="1" as="geometry">
            <mxPoint x="400" y="320" as="sourcePoint" />
            <mxPoint x="360" y="160" as="targetPoint" />
          </mxGeometry>
        </mxCell>
        <mxCell id="EKS3jcCrZXsVgr4jlx1r-9" style="edgeStyle=orthogonalEdgeStyle;rounded=0;orthogonalLoop=1;jettySize=auto;html=1;entryX=0;entryY=0.5;entryDx=0;entryDy=0;" parent="1" source="EKS3jcCrZXsVgr4jlx1r-1" target="EKS3jcCrZXsVgr4jlx1r-15" edge="1">
          <mxGeometry relative="1" as="geometry">
            <mxPoint x="360" y="280" as="targetPoint" />
          </mxGeometry>
        </mxCell>
        <mxCell id="5jO6kQypJGTbwsADkeBX-4" style="edgeStyle=orthogonalEdgeStyle;rounded=0;orthogonalLoop=1;jettySize=auto;html=1;exitX=1;exitY=0.25;exitDx=0;exitDy=0;entryX=0;entryY=0.5;entryDx=0;entryDy=0;" parent="1" source="EKS3jcCrZXsVgr4jlx1r-1" target="EKS3jcCrZXsVgr4jlx1r-6" edge="1">
          <mxGeometry relative="1" as="geometry" />
        </mxCell>
        <mxCell id="5jO6kQypJGTbwsADkeBX-5" style="edgeStyle=orthogonalEdgeStyle;rounded=0;orthogonalLoop=1;jettySize=auto;html=1;exitX=1;exitY=0.75;exitDx=0;exitDy=0;entryX=0;entryY=0.5;entryDx=0;entryDy=0;" parent="1" source="EKS3jcCrZXsVgr4jlx1r-1" target="EKS3jcCrZXsVgr4jlx1r-4" edge="1">
          <mxGeometry relative="1" as="geometry" />
        </mxCell>
        <mxCell id="EKS3jcCrZXsVgr4jlx1r-1" value="" style="rounded=0;whiteSpace=wrap;html=1;" parent="1" vertex="1">
          <mxGeometry x="50" y="170" width="120" height="60" as="geometry" />
        </mxCell>
        <mxCell id="EKS3jcCrZXsVgr4jlx1r-24" style="edgeStyle=orthogonalEdgeStyle;rounded=0;orthogonalLoop=1;jettySize=auto;html=1;" parent="1" source="EKS3jcCrZXsVgr4jlx1r-4" target="EKS3jcCrZXsVgr4jlx1r-21" edge="1">
          <mxGeometry relative="1" as="geometry" />
        </mxCell>
        <mxCell id="EKS3jcCrZXsVgr4jlx1r-4" value="" style="rounded=0;whiteSpace=wrap;html=1;" parent="1" vertex="1">
          <mxGeometry x="340" y="250" width="120" height="60" as="geometry" />
        </mxCell>
        <mxCell id="EKS3jcCrZXsVgr4jlx1r-22" style="edgeStyle=orthogonalEdgeStyle;rounded=0;orthogonalLoop=1;jettySize=auto;html=1;" parent="1" source="EKS3jcCrZXsVgr4jlx1r-6" target="EKS3jcCrZXsVgr4jlx1r-20" edge="1">
          <mxGeometry relative="1" as="geometry" />
        </mxCell>
        <mxCell id="EKS3jcCrZXsVgr4jlx1r-6" value="" style="rounded=0;whiteSpace=wrap;html=1;" parent="1" vertex="1">
          <mxGeometry x="340" y="90" width="120" height="60" as="geometry" />
        </mxCell>
        <mxCell id="EKS3jcCrZXsVgr4jlx1r-23" style="edgeStyle=orthogonalEdgeStyle;rounded=0;orthogonalLoop=1;jettySize=auto;html=1;" parent="1" source="EKS3jcCrZXsVgr4jlx1r-15" target="EKS3jcCrZXsVgr4jlx1r-19" edge="1">
          <mxGeometry relative="1" as="geometry" />
        </mxCell>
        <mxCell id="EKS3jcCrZXsVgr4jlx1r-15" value="" style="rounded=0;whiteSpace=wrap;html=1;" parent="1" vertex="1">
          <mxGeometry x="340" y="170" width="120" height="60" as="geometry" />
        </mxCell>
        <mxCell id="EKS3jcCrZXsVgr4jlx1r-29" style="edgeStyle=orthogonalEdgeStyle;rounded=0;orthogonalLoop=1;jettySize=auto;html=1;" parent="1" source="EKS3jcCrZXsVgr4jlx1r-19" target="EKS3jcCrZXsVgr4jlx1r-26" edge="1">
          <mxGeometry relative="1" as="geometry" />
        </mxCell>
        <mxCell id="EKS3jcCrZXsVgr4jlx1r-19" value="" style="rounded=0;whiteSpace=wrap;html=1;" parent="1" vertex="1">
          <mxGeometry x="520" y="170" width="120" height="60" as="geometry" />
        </mxCell>
        <mxCell id="EKS3jcCrZXsVgr4jlx1r-30" style="edgeStyle=orthogonalEdgeStyle;rounded=0;orthogonalLoop=1;jettySize=auto;html=1;" parent="1" source="EKS3jcCrZXsVgr4jlx1r-20" target="EKS3jcCrZXsVgr4jlx1r-25" edge="1">
          <mxGeometry relative="1" as="geometry" />
        </mxCell>
        <mxCell id="EKS3jcCrZXsVgr4jlx1r-20" value="" style="rounded=0;whiteSpace=wrap;html=1;" parent="1" vertex="1">
          <mxGeometry x="520" y="90" width="120" height="60" as="geometry" />
        </mxCell>
        <mxCell id="EKS3jcCrZXsVgr4jlx1r-28" style="edgeStyle=orthogonalEdgeStyle;rounded=0;orthogonalLoop=1;jettySize=auto;html=1;" parent="1" source="EKS3jcCrZXsVgr4jlx1r-21" target="EKS3jcCrZXsVgr4jlx1r-27" edge="1">
          <mxGeometry relative="1" as="geometry" />
        </mxCell>
        <mxCell id="EKS3jcCrZXsVgr4jlx1r-21" value="" style="rounded=0;whiteSpace=wrap;html=1;" parent="1" vertex="1">
          <mxGeometry x="520" y="250" width="120" height="60" as="geometry" />
        </mxCell>
        <mxCell id="EKS3jcCrZXsVgr4jlx1r-25" value="" style="rounded=0;whiteSpace=wrap;html=1;" parent="1" vertex="1">
          <mxGeometry x="670" y="90" width="120" height="60" as="geometry" />
        </mxCell>
        <mxCell id="EKS3jcCrZXsVgr4jlx1r-26" value="" style="rounded=0;whiteSpace=wrap;html=1;" parent="1" vertex="1">
          <mxGeometry x="670" y="170" width="120" height="60" as="geometry" />
        </mxCell>
        <mxCell id="EKS3jcCrZXsVgr4jlx1r-27" value="" style="rounded=0;whiteSpace=wrap;html=1;" parent="1" vertex="1">
          <mxGeometry x="670" y="250" width="120" height="60" as="geometry" />
        </mxCell>
        <mxCell id="EKS3jcCrZXsVgr4jlx1r-31" value="&lt;font style=&quot;font-size: 18px&quot;&gt;&lt;b&gt;ASMA&lt;/b&gt;&lt;/font&gt;" style="text;html=1;strokeColor=none;fillColor=none;align=center;verticalAlign=middle;whiteSpace=wrap;rounded=0;" parent="1" vertex="1">
          <mxGeometry x="80" y="50" width="60" height="20" as="geometry" />
        </mxCell>
        <mxCell id="EKS3jcCrZXsVgr4jlx1r-32" value="&lt;b&gt;&lt;font style=&quot;font-size: 14px&quot;&gt;User&lt;/font&gt;&lt;/b&gt;" style="text;html=1;strokeColor=none;fillColor=none;align=center;verticalAlign=middle;whiteSpace=wrap;rounded=0;" parent="1" vertex="1">
          <mxGeometry x="85" y="190" width="50" height="20" as="geometry" />
        </mxCell>
        <mxCell id="EKS3jcCrZXsVgr4jlx1r-35" value="&lt;font style=&quot;font-size: 14px&quot;&gt;Schedule&lt;br&gt;message&lt;/font&gt;" style="text;html=1;strokeColor=none;fillColor=none;align=center;verticalAlign=middle;whiteSpace=wrap;rounded=0;" parent="1" vertex="1">
          <mxGeometry x="365" y="105" width="70" height="30" as="geometry" />
        </mxCell>
        <mxCell id="EKS3jcCrZXsVgr4jlx1r-36" value="Web Automation" style="text;html=1;strokeColor=none;fillColor=none;align=center;verticalAlign=middle;whiteSpace=wrap;rounded=0;" parent="1" vertex="1">
          <mxGeometry x="550" y="100" width="70" height="40" as="geometry" />
        </mxCell>
        <mxCell id="EKS3jcCrZXsVgr4jlx1r-38" value="Instagram&lt;br&gt;API" style="text;html=1;strokeColor=none;fillColor=none;align=center;verticalAlign=middle;whiteSpace=wrap;rounded=0;" parent="1" vertex="1">
          <mxGeometry x="550" y="265" width="60" height="30" as="geometry" />
        </mxCell>
        <mxCell id="EKS3jcCrZXsVgr4jlx1r-39" value="Post Image" style="text;html=1;strokeColor=none;fillColor=none;align=center;verticalAlign=middle;whiteSpace=wrap;rounded=0;" parent="1" vertex="1">
          <mxGeometry x="710" y="270" width="40" height="20" as="geometry" />
        </mxCell>
        <mxCell id="EKS3jcCrZXsVgr4jlx1r-40" value="Post Tweet" style="text;html=1;strokeColor=none;fillColor=none;align=center;verticalAlign=middle;whiteSpace=wrap;rounded=0;" parent="1" vertex="1">
          <mxGeometry x="710" y="190" width="40" height="20" as="geometry" />
        </mxCell>
        <mxCell id="EKS3jcCrZXsVgr4jlx1r-41" value="Post message" style="text;html=1;strokeColor=none;fillColor=none;align=center;verticalAlign=middle;whiteSpace=wrap;rounded=0;" parent="1" vertex="1">
          <mxGeometry x="710" y="110" width="40" height="20" as="geometry" />
        </mxCell>
        <mxCell id="EKS3jcCrZXsVgr4jlx1r-42" value="&lt;font style=&quot;font-size: 14px&quot;&gt;Schedule&lt;br&gt;message&lt;/font&gt;" style="text;html=1;strokeColor=none;fillColor=none;align=center;verticalAlign=middle;whiteSpace=wrap;rounded=0;" parent="1" vertex="1">
          <mxGeometry x="365" y="265" width="70" height="30" as="geometry" />
        </mxCell>
        <mxCell id="EKS3jcCrZXsVgr4jlx1r-43" value="&lt;font style=&quot;font-size: 14px&quot;&gt;Schedule&lt;br&gt;message&lt;/font&gt;" style="text;html=1;strokeColor=none;fillColor=none;align=center;verticalAlign=middle;whiteSpace=wrap;rounded=0;" parent="1" vertex="1">
          <mxGeometry x="365" y="185" width="70" height="30" as="geometry" />
        </mxCell>
        <mxCell id="dFjOsy0HrMezbPJ6KUHk-1" value="Web Automation" style="text;html=1;strokeColor=none;fillColor=none;align=center;verticalAlign=middle;whiteSpace=wrap;rounded=0;" parent="1" vertex="1">
          <mxGeometry x="550" y="180" width="70" height="40" as="geometry" />
        </mxCell>
        <mxCell id="5jO6kQypJGTbwsADkeBX-1" value="&lt;font style=&quot;font-size: 14px&quot;&gt;WhatsApp&lt;/font&gt;" style="text;html=1;strokeColor=none;fillColor=none;align=center;verticalAlign=middle;whiteSpace=wrap;rounded=0;" parent="1" vertex="1">
          <mxGeometry x="260" y="100" width="70" height="20" as="geometry" />
        </mxCell>
        <mxCell id="5jO6kQypJGTbwsADkeBX-2" value="&lt;font style=&quot;font-size: 14px&quot;&gt;Twitter&lt;/font&gt;" style="text;html=1;strokeColor=none;fillColor=none;align=center;verticalAlign=middle;whiteSpace=wrap;rounded=0;" parent="1" vertex="1">
          <mxGeometry x="260" y="180" width="70" height="20" as="geometry" />
        </mxCell>
        <mxCell id="5jO6kQypJGTbwsADkeBX-3" value="&lt;font style=&quot;font-size: 14px&quot;&gt;Instagram&lt;/font&gt;" style="text;html=1;strokeColor=none;fillColor=none;align=center;verticalAlign=middle;whiteSpace=wrap;rounded=0;" parent="1" vertex="1">
          <mxGeometry x="260" y="260" width="70" height="20" as="geometry" />
        </mxCell>
      </root>
    </mxGraphModel>
  </diagram>
  <diagram id="Aacw2wZk_8vitSkqX5ht" name="data flow WhatsApp">
    <mxGraphModel dx="2071" dy="682" grid="1" gridSize="10" guides="1" tooltips="1" connect="1" arrows="1" fold="1" page="1" pageScale="1" pageWidth="850" pageHeight="1100" math="0" shadow="0">
      <root>
        <mxCell id="BvEMqLw56rxw66DPcPGW-0" />
        <mxCell id="BvEMqLw56rxw66DPcPGW-1" parent="BvEMqLw56rxw66DPcPGW-0" />
        <mxCell id="AbrgY4A1fLrhODOWXS1a-34" style="edgeStyle=orthogonalEdgeStyle;rounded=0;orthogonalLoop=1;jettySize=auto;html=1;entryX=0.5;entryY=1;entryDx=0;entryDy=0;" edge="1" parent="BvEMqLw56rxw66DPcPGW-1" source="AbrgY4A1fLrhODOWXS1a-33" target="AbrgY4A1fLrhODOWXS1a-0">
          <mxGeometry relative="1" as="geometry">
            <mxPoint x="370" y="520" as="targetPoint" />
            <Array as="points">
              <mxPoint x="370" y="520" />
              <mxPoint x="-130" y="520" />
            </Array>
          </mxGeometry>
        </mxCell>
        <mxCell id="AbrgY4A1fLrhODOWXS1a-33" value="" style="shape=process;whiteSpace=wrap;html=1;backgroundOutline=1;" vertex="1" parent="BvEMqLw56rxw66DPcPGW-1">
          <mxGeometry y="350" width="740" height="100" as="geometry" />
        </mxCell>
        <mxCell id="AbrgY4A1fLrhODOWXS1a-4" style="edgeStyle=orthogonalEdgeStyle;rounded=0;orthogonalLoop=1;jettySize=auto;html=1;entryX=0;entryY=0.5;entryDx=0;entryDy=0;" edge="1" parent="BvEMqLw56rxw66DPcPGW-1" source="AbrgY4A1fLrhODOWXS1a-0" target="AbrgY4A1fLrhODOWXS1a-33">
          <mxGeometry relative="1" as="geometry">
            <mxPoint y="400" as="targetPoint" />
          </mxGeometry>
        </mxCell>
        <mxCell id="AbrgY4A1fLrhODOWXS1a-0" value="&lt;font style=&quot;font-size: 14px&quot;&gt;User&lt;/font&gt;" style="rounded=0;whiteSpace=wrap;html=1;" vertex="1" parent="BvEMqLw56rxw66DPcPGW-1">
          <mxGeometry x="-190" y="370" width="120" height="60" as="geometry" />
        </mxCell>
        <mxCell id="AbrgY4A1fLrhODOWXS1a-6" style="edgeStyle=orthogonalEdgeStyle;rounded=0;orthogonalLoop=1;jettySize=auto;html=1;" edge="1" parent="BvEMqLw56rxw66DPcPGW-1" source="AbrgY4A1fLrhODOWXS1a-1" target="AbrgY4A1fLrhODOWXS1a-5">
          <mxGeometry relative="1" as="geometry" />
        </mxCell>
        <mxCell id="AbrgY4A1fLrhODOWXS1a-1" value="&lt;font style=&quot;font-size: 14px&quot;&gt;Time &lt;br&gt;calculation&lt;/font&gt;" style="rounded=0;whiteSpace=wrap;html=1;" vertex="1" parent="BvEMqLw56rxw66DPcPGW-1">
          <mxGeometry x="80" y="370" width="120" height="60" as="geometry" />
        </mxCell>
        <mxCell id="AbrgY4A1fLrhODOWXS1a-8" style="edgeStyle=orthogonalEdgeStyle;rounded=0;orthogonalLoop=1;jettySize=auto;html=1;" edge="1" parent="BvEMqLw56rxw66DPcPGW-1" source="AbrgY4A1fLrhODOWXS1a-2" target="AbrgY4A1fLrhODOWXS1a-3">
          <mxGeometry relative="1" as="geometry" />
        </mxCell>
        <mxCell id="AbrgY4A1fLrhODOWXS1a-2" value="&lt;span style=&quot;font-size: 14px&quot;&gt;open&amp;nbsp;&lt;br&gt;website&lt;br&gt;&lt;/span&gt;" style="rounded=0;whiteSpace=wrap;html=1;" vertex="1" parent="BvEMqLw56rxw66DPcPGW-1">
          <mxGeometry x="390" y="370" width="120" height="60" as="geometry" />
        </mxCell>
        <mxCell id="AbrgY4A1fLrhODOWXS1a-3" value="&lt;span style=&quot;font-size: 14px&quot;&gt;Post&lt;br&gt;message&lt;br&gt;&lt;/span&gt;" style="rounded=0;whiteSpace=wrap;html=1;" vertex="1" parent="BvEMqLw56rxw66DPcPGW-1">
          <mxGeometry x="540" y="370" width="120" height="60" as="geometry" />
        </mxCell>
        <mxCell id="AbrgY4A1fLrhODOWXS1a-7" style="edgeStyle=orthogonalEdgeStyle;rounded=0;orthogonalLoop=1;jettySize=auto;html=1;" edge="1" parent="BvEMqLw56rxw66DPcPGW-1" source="AbrgY4A1fLrhODOWXS1a-5" target="AbrgY4A1fLrhODOWXS1a-2">
          <mxGeometry relative="1" as="geometry" />
        </mxCell>
        <mxCell id="AbrgY4A1fLrhODOWXS1a-5" value="&lt;span style=&quot;font-size: 14px&quot;&gt;Wait&amp;nbsp;&lt;br&gt;till timer end&lt;br&gt;&lt;/span&gt;" style="rounded=0;whiteSpace=wrap;html=1;" vertex="1" parent="BvEMqLw56rxw66DPcPGW-1">
          <mxGeometry x="240" y="370" width="120" height="60" as="geometry" />
        </mxCell>
        <mxCell id="AbrgY4A1fLrhODOWXS1a-43" value="&lt;b&gt;&lt;font style=&quot;font-size: 18px&quot;&gt;WhatsApp&lt;/font&gt;&lt;/b&gt;" style="text;html=1;strokeColor=none;fillColor=none;align=center;verticalAlign=middle;whiteSpace=wrap;rounded=0;" vertex="1" parent="BvEMqLw56rxw66DPcPGW-1">
          <mxGeometry x="240" y="530" width="160" height="30" as="geometry" />
        </mxCell>
      </root>
    </mxGraphModel>
  </diagram>
  <diagram id="eX54SjPHeqJ5sAqHDFVr" name="Data flow twitter">
    <mxGraphModel dx="1888" dy="580" grid="1" gridSize="10" guides="1" tooltips="1" connect="1" arrows="1" fold="1" page="1" pageScale="1" pageWidth="850" pageHeight="1100" math="0" shadow="0">
      <root>
        <mxCell id="8kV4o3gAoiQ80ZRp0-jf-0" />
        <mxCell id="8kV4o3gAoiQ80ZRp0-jf-1" parent="8kV4o3gAoiQ80ZRp0-jf-0" />
        <mxCell id="8kV4o3gAoiQ80ZRp0-jf-2" style="edgeStyle=orthogonalEdgeStyle;rounded=0;orthogonalLoop=1;jettySize=auto;html=1;entryX=0.5;entryY=1;entryDx=0;entryDy=0;" edge="1" parent="8kV4o3gAoiQ80ZRp0-jf-1" source="8kV4o3gAoiQ80ZRp0-jf-3" target="8kV4o3gAoiQ80ZRp0-jf-5">
          <mxGeometry relative="1" as="geometry">
            <mxPoint x="540" y="360" as="targetPoint" />
            <Array as="points">
              <mxPoint x="540" y="310" />
              <mxPoint x="40" y="310" />
            </Array>
          </mxGeometry>
        </mxCell>
        <mxCell id="8kV4o3gAoiQ80ZRp0-jf-3" value="" style="shape=process;whiteSpace=wrap;html=1;backgroundOutline=1;" vertex="1" parent="8kV4o3gAoiQ80ZRp0-jf-1">
          <mxGeometry x="170" y="150" width="740" height="100" as="geometry" />
        </mxCell>
        <mxCell id="8kV4o3gAoiQ80ZRp0-jf-4" style="edgeStyle=orthogonalEdgeStyle;rounded=0;orthogonalLoop=1;jettySize=auto;html=1;entryX=0;entryY=0.5;entryDx=0;entryDy=0;" edge="1" parent="8kV4o3gAoiQ80ZRp0-jf-1" source="8kV4o3gAoiQ80ZRp0-jf-5" target="8kV4o3gAoiQ80ZRp0-jf-3">
          <mxGeometry relative="1" as="geometry">
            <mxPoint x="180" y="200" as="targetPoint" />
          </mxGeometry>
        </mxCell>
        <mxCell id="8kV4o3gAoiQ80ZRp0-jf-5" value="&lt;font style=&quot;font-size: 14px&quot;&gt;User&lt;/font&gt;" style="rounded=0;whiteSpace=wrap;html=1;" vertex="1" parent="8kV4o3gAoiQ80ZRp0-jf-1">
          <mxGeometry x="-20" y="170" width="120" height="60" as="geometry" />
        </mxCell>
        <mxCell id="8kV4o3gAoiQ80ZRp0-jf-6" style="edgeStyle=orthogonalEdgeStyle;rounded=0;orthogonalLoop=1;jettySize=auto;html=1;" edge="1" parent="8kV4o3gAoiQ80ZRp0-jf-1" source="8kV4o3gAoiQ80ZRp0-jf-7" target="8kV4o3gAoiQ80ZRp0-jf-12">
          <mxGeometry relative="1" as="geometry" />
        </mxCell>
        <mxCell id="8kV4o3gAoiQ80ZRp0-jf-7" value="&lt;font style=&quot;font-size: 14px&quot;&gt;Time &lt;br&gt;calculation&lt;/font&gt;" style="rounded=0;whiteSpace=wrap;html=1;" vertex="1" parent="8kV4o3gAoiQ80ZRp0-jf-1">
          <mxGeometry x="250" y="170" width="120" height="60" as="geometry" />
        </mxCell>
        <mxCell id="8kV4o3gAoiQ80ZRp0-jf-8" style="edgeStyle=orthogonalEdgeStyle;rounded=0;orthogonalLoop=1;jettySize=auto;html=1;" edge="1" parent="8kV4o3gAoiQ80ZRp0-jf-1" source="8kV4o3gAoiQ80ZRp0-jf-9" target="8kV4o3gAoiQ80ZRp0-jf-10">
          <mxGeometry relative="1" as="geometry" />
        </mxCell>
        <mxCell id="8kV4o3gAoiQ80ZRp0-jf-9" value="&lt;span style=&quot;font-size: 14px&quot;&gt;open&amp;nbsp;&lt;br&gt;website&lt;br&gt;&lt;/span&gt;" style="rounded=0;whiteSpace=wrap;html=1;" vertex="1" parent="8kV4o3gAoiQ80ZRp0-jf-1">
          <mxGeometry x="560" y="170" width="120" height="60" as="geometry" />
        </mxCell>
        <mxCell id="8kV4o3gAoiQ80ZRp0-jf-10" value="&lt;span style=&quot;font-size: 14px&quot;&gt;Post&lt;br&gt;Tweet&lt;br&gt;&lt;/span&gt;" style="rounded=0;whiteSpace=wrap;html=1;" vertex="1" parent="8kV4o3gAoiQ80ZRp0-jf-1">
          <mxGeometry x="710" y="170" width="120" height="60" as="geometry" />
        </mxCell>
        <mxCell id="8kV4o3gAoiQ80ZRp0-jf-11" style="edgeStyle=orthogonalEdgeStyle;rounded=0;orthogonalLoop=1;jettySize=auto;html=1;" edge="1" parent="8kV4o3gAoiQ80ZRp0-jf-1" source="8kV4o3gAoiQ80ZRp0-jf-12" target="8kV4o3gAoiQ80ZRp0-jf-9">
          <mxGeometry relative="1" as="geometry" />
        </mxCell>
        <mxCell id="8kV4o3gAoiQ80ZRp0-jf-12" value="&lt;span style=&quot;font-size: 14px&quot;&gt;Wait&amp;nbsp;&lt;br&gt;till timer end&lt;br&gt;&lt;/span&gt;" style="rounded=0;whiteSpace=wrap;html=1;" vertex="1" parent="8kV4o3gAoiQ80ZRp0-jf-1">
          <mxGeometry x="410" y="170" width="120" height="60" as="geometry" />
        </mxCell>
        <mxCell id="8kV4o3gAoiQ80ZRp0-jf-13" value="&lt;b&gt;&lt;font style=&quot;font-size: 18px&quot;&gt;Twitter&lt;/font&gt;&lt;/b&gt;" style="text;html=1;strokeColor=none;fillColor=none;align=center;verticalAlign=middle;whiteSpace=wrap;rounded=0;" vertex="1" parent="8kV4o3gAoiQ80ZRp0-jf-1">
          <mxGeometry x="450" y="330" width="100" height="30" as="geometry" />
        </mxCell>
      </root>
    </mxGraphModel>
  </diagram>
  <diagram id="_f30fd7-JAMMz_Ms3d2_" name="data flow Instagram">
    <mxGraphModel dx="1038" dy="580" grid="1" gridSize="10" guides="1" tooltips="1" connect="1" arrows="1" fold="1" page="1" pageScale="1" pageWidth="850" pageHeight="1100" math="0" shadow="0">
      <root>
        <mxCell id="uisz3Zvj_eBdafS69WKy-0" />
        <mxCell id="uisz3Zvj_eBdafS69WKy-1" parent="uisz3Zvj_eBdafS69WKy-0" />
        <mxCell id="uisz3Zvj_eBdafS69WKy-2" style="edgeStyle=orthogonalEdgeStyle;rounded=0;orthogonalLoop=1;jettySize=auto;html=1;entryX=0;entryY=0.5;entryDx=0;entryDy=0;" edge="1" parent="uisz3Zvj_eBdafS69WKy-1" source="uisz3Zvj_eBdafS69WKy-3" target="uisz3Zvj_eBdafS69WKy-5">
          <mxGeometry relative="1" as="geometry" />
        </mxCell>
        <mxCell id="uisz3Zvj_eBdafS69WKy-3" value="&lt;font style=&quot;font-size: 14px&quot;&gt;User&lt;/font&gt;" style="rounded=0;whiteSpace=wrap;html=1;" vertex="1" parent="uisz3Zvj_eBdafS69WKy-1">
          <mxGeometry x="90" y="180" width="140" height="70" as="geometry" />
        </mxCell>
        <mxCell id="uisz3Zvj_eBdafS69WKy-4" style="edgeStyle=orthogonalEdgeStyle;rounded=0;orthogonalLoop=1;jettySize=auto;html=1;" edge="1" parent="uisz3Zvj_eBdafS69WKy-1" source="uisz3Zvj_eBdafS69WKy-5" target="uisz3Zvj_eBdafS69WKy-8">
          <mxGeometry relative="1" as="geometry" />
        </mxCell>
        <mxCell id="uisz3Zvj_eBdafS69WKy-5" value="&lt;font style=&quot;font-size: 14px&quot;&gt;Time &lt;br&gt;calculation&lt;/font&gt;" style="rounded=0;whiteSpace=wrap;html=1;" vertex="1" parent="uisz3Zvj_eBdafS69WKy-1">
          <mxGeometry x="200" y="300" width="120" height="60" as="geometry" />
        </mxCell>
        <mxCell id="uisz3Zvj_eBdafS69WKy-6" style="edgeStyle=orthogonalEdgeStyle;rounded=0;orthogonalLoop=1;jettySize=auto;html=1;entryX=1;entryY=0.25;entryDx=0;entryDy=0;startArrow=none;exitX=0;exitY=0.75;exitDx=0;exitDy=0;" edge="1" parent="uisz3Zvj_eBdafS69WKy-1" source="uisz3Zvj_eBdafS69WKy-13" target="uisz3Zvj_eBdafS69WKy-3">
          <mxGeometry relative="1" as="geometry">
            <mxPoint x="630" y="330" as="sourcePoint" />
            <mxPoint x="740" y="330" as="targetPoint" />
            <Array as="points">
              <mxPoint x="400" y="198" />
              <mxPoint x="315" y="198" />
            </Array>
          </mxGeometry>
        </mxCell>
        <mxCell id="uisz3Zvj_eBdafS69WKy-7" style="edgeStyle=orthogonalEdgeStyle;rounded=0;orthogonalLoop=1;jettySize=auto;html=1;" edge="1" parent="uisz3Zvj_eBdafS69WKy-1" source="uisz3Zvj_eBdafS69WKy-8">
          <mxGeometry relative="1" as="geometry">
            <mxPoint x="510" y="330" as="targetPoint" />
          </mxGeometry>
        </mxCell>
        <mxCell id="uisz3Zvj_eBdafS69WKy-8" value="&lt;span style=&quot;font-size: 14px&quot;&gt;Wait&amp;nbsp;&lt;br&gt;till timer end&lt;br&gt;&lt;/span&gt;" style="rounded=0;whiteSpace=wrap;html=1;" vertex="1" parent="uisz3Zvj_eBdafS69WKy-1">
          <mxGeometry x="360" y="300" width="120" height="60" as="geometry" />
        </mxCell>
        <mxCell id="uisz3Zvj_eBdafS69WKy-9" style="edgeStyle=orthogonalEdgeStyle;rounded=0;orthogonalLoop=1;jettySize=auto;html=1;startArrow=none;" edge="1" parent="uisz3Zvj_eBdafS69WKy-1" source="uisz3Zvj_eBdafS69WKy-11">
          <mxGeometry relative="1" as="geometry">
            <mxPoint x="230" y="235" as="targetPoint" />
            <Array as="points">
              <mxPoint x="350" y="235" />
              <mxPoint x="350" y="235" />
            </Array>
          </mxGeometry>
        </mxCell>
        <mxCell id="uisz3Zvj_eBdafS69WKy-10" value="Instragram&lt;br&gt;API" style="shape=process;whiteSpace=wrap;html=1;backgroundOutline=1;" vertex="1" parent="uisz3Zvj_eBdafS69WKy-1">
          <mxGeometry x="510" y="300" width="120" height="60" as="geometry" />
        </mxCell>
        <mxCell id="uisz3Zvj_eBdafS69WKy-11" value="&lt;font style=&quot;font-size: 13px&quot;&gt;Image&amp;nbsp;&lt;br&gt;not in right size&lt;/font&gt;" style="text;html=1;strokeColor=none;fillColor=none;align=center;verticalAlign=middle;whiteSpace=wrap;rounded=0;" vertex="1" parent="uisz3Zvj_eBdafS69WKy-1">
          <mxGeometry x="390" y="220" width="100" height="20" as="geometry" />
        </mxCell>
        <mxCell id="uisz3Zvj_eBdafS69WKy-12" value="" style="edgeStyle=orthogonalEdgeStyle;rounded=0;orthogonalLoop=1;jettySize=auto;html=1;entryX=1;entryY=0.75;entryDx=0;entryDy=0;endArrow=none;" edge="1" parent="uisz3Zvj_eBdafS69WKy-1" source="uisz3Zvj_eBdafS69WKy-10" target="uisz3Zvj_eBdafS69WKy-11">
          <mxGeometry relative="1" as="geometry">
            <mxPoint x="230" y="235" as="targetPoint" />
            <mxPoint x="570" y="300" as="sourcePoint" />
            <Array as="points">
              <mxPoint x="570" y="235" />
            </Array>
          </mxGeometry>
        </mxCell>
        <mxCell id="uisz3Zvj_eBdafS69WKy-13" value="&lt;font style=&quot;font-size: 13px&quot;&gt;Image uploaded&lt;/font&gt;" style="text;html=1;strokeColor=none;fillColor=none;align=center;verticalAlign=middle;whiteSpace=wrap;rounded=0;" vertex="1" parent="uisz3Zvj_eBdafS69WKy-1">
          <mxGeometry x="400" y="180" width="70" height="20" as="geometry" />
        </mxCell>
        <mxCell id="uisz3Zvj_eBdafS69WKy-14" value="" style="edgeStyle=orthogonalEdgeStyle;rounded=0;orthogonalLoop=1;jettySize=auto;html=1;endArrow=none;entryX=1;entryY=0.75;entryDx=0;entryDy=0;" edge="1" parent="uisz3Zvj_eBdafS69WKy-1" target="uisz3Zvj_eBdafS69WKy-13">
          <mxGeometry relative="1" as="geometry">
            <mxPoint x="630" y="330" as="sourcePoint" />
            <mxPoint x="550" y="190" as="targetPoint" />
            <Array as="points">
              <mxPoint x="690" y="330" />
              <mxPoint x="690" y="195" />
            </Array>
          </mxGeometry>
        </mxCell>
        <mxCell id="uisz3Zvj_eBdafS69WKy-15" value="&lt;font size=&quot;1&quot;&gt;&lt;b style=&quot;font-size: 16px&quot;&gt;Instagram&lt;/b&gt;&lt;/font&gt;" style="text;html=1;strokeColor=none;fillColor=none;align=center;verticalAlign=middle;whiteSpace=wrap;rounded=0;" vertex="1" parent="uisz3Zvj_eBdafS69WKy-1">
          <mxGeometry x="372.5" y="400" width="95" height="30" as="geometry" />
        </mxCell>
      </root>
    </mxGraphModel>
  </diagram>
</mxfile>
